<?xml version="1.0" encoding="UTF-8"?> <svg xmlns="http://www.w3.org/2000/svg" width="29" height="29" viewBox="0 0 29 29"><path id="Path" d="M14.494,0A14.5,14.5,0,0,0,9.209,28a13.954,13.954,0,0,1,.048-4.163c.262-1.133,1.694-7.205,1.694-7.205a5.28,5.28,0,0,1-.429-2.147c0-2.016,1.169-3.519,2.624-3.519A1.821,1.821,0,0,1,14.983,13c0,1.241-.787,3.1-1.2,4.831a2.108,2.108,0,0,0,2.147,2.624c2.577,0,4.557-2.72,4.557-6.633a5.719,5.719,0,0,0-6.06-5.893A6.273,6.273,0,0,0,7.873,14.22a5.658,5.658,0,0,0,1.074,3.3.432.432,0,0,1,.1.418c-.107.453-.358,1.443-.406,1.646-.06.262-.215.322-.489.191-1.789-.859-2.911-3.507-2.911-5.631,0-4.569,3.316-8.768,9.579-8.768,5.022,0,8.935,3.579,8.935,8.374,0,5-3.149,9.019-7.515,9.019a3.851,3.851,0,0,1-3.316-1.67l-.907,3.448a15.791,15.791,0,0,1-1.8,3.805A14.5,14.5,0,1,0,14.494,0Z" fill="#fff"></path></svg> 