<svg xmlns="http://www.w3.org/2000/svg" width="83" height="83" fill="none"><rect width="83" height="83" fill="#004685" rx="18.044"/><path fill="#fff" d="M46.712 57.76V45.897c0-9.368-4.69-15.404-10.005-15.404-6.669 0-9.796 7.703-9.796 22.273 0 12.072 3.544 18.838 10.005 18.838 5.316 0 9.797-5.62 9.797-13.842Zm0-46.209c0-6.974-1.355-8.952-6.252-11.343V0h24.907v66.607c0 6.555.52 8.22 5.002 11.135v.208H46.716V65.045c-2.189 7.806-8.338 13.945-17.507 13.945-12.091.003-21.99-10.197-21.99-26.225 0-16.653 10.42-27.372 23.343-27.372 8.544 0 13.963 4.788 16.151 11.657z"/></svg>