<svg xmlns="http://www.w3.org/2000/svg" fill="none" viewBox="0 0 1601 300"><style>:root { --primary : #ffffff; }</style><title>Network Logo</title><desc>Network Logo for delish</desc><path fill-rule="evenodd" d="M1574.12 187.72H17.65v-1.32h1556.47v1.32zM301.14 1.82h44.74V41.7h20.93V1.82h44.74v118.09h-44.74V75.78h-20.93v44.13h-44.74V1.82zM851.16 119.9h44.76V77.13c1.44-.14 2.94-.14 4.1-.14 10.74 0 12.22 5.03 14.02 17.77l1.16 8.76c.67 5.29 1.96 10.67 3.47 16.4h45.35c-1.96-8.74-3.45-15.76-4.13-21.02l-1.48-12.61c-2.13-17.03-5.95-24.26-21.93-26.93 15.52-4.11 23.4-13.26 23.4-27.53 0-23.6-15.31-30-47.98-30h-60.74v118.09zm44.76-69.36v-22.3c1.9-.19 3.61-.19 5.08-.19 10.07 0 14.52 3.14 14.52 10.5 0 7.54-5.6 12.1-16.33 12.1-1 0-2.18 0-3.27-.11zm176.09 31.48v.95c0 8.07 3.62 11.78 11.34 11.78 6.98 0 11.09-3.4 11.09-8.47 0-3.8-1.66-6.72-4.66-8.18-6.09-2.97-16.81-4.64-30.81-9.07-19.15-6.06-28.08-15.38-28.08-31.93 0-23.15 18.84-37.1 53.47-37.1 31.5 0 48.14 11.63 48.14 32.46v2.47h-39.4c-.51-7.06-3.77-10.48-10.38-10.48-6.1 0-9.9 3.42-9.9 7.86 0 8.26 8.25 7.91 23.26 12.02 27.6 7.3 40.76 14.86 40.76 36.3 0 25-20.12 41.24-54.46 41.24-34.82 0-53.31-13.07-53.31-35.6 0-1.29 0-2.72.2-4.25h42.74zM494.09 1.82H583v30.3h-44.04v12.82h40.9V75.3h-40.9v13.94h45.51v30.68h-90.4V1.82zm802.5 31.48h-28.56v86.6h-45.83V33.3h-28.75V1.82h103.14V33.3zm-647.55 86.8h45.09l4.38-18.91h34.54l4.12 18.91h49L748.72 1.82h-60.39l-39.3 118.28zm77.53-47.71h-21.1l10.94-46.64 10.16 46.64zM8.99 291.57h20.94v7.55H0v-51.18h8.99v43.63zm58.74 7.55h-8.98v-51.18h8.98v51.18zm34.17 0v-51.18h28.22v7.4H110.9v14.6h18.34v7.26H110.9v21.92h-9zm89.05 0h-30.16v-51.18h29.71v7.4h-20.8v13.86h19.24v7.19h-19.23v15.32h21.24v7.41zm57.7-42.82a24.87 24.87 0 0 0-10.1-2.2c-2.77 0-4.98.6-6.64 1.8a5.5 5.5 0 0 0-2.5 4.65c0 .83.13 1.6.38 2.31.25.7.73 1.4 1.45 2.09s1.7 1.37 2.93 2.05c1.24.69 2.85 1.42 4.83 2.2 4.65 1.81 8.02 3.89 10.1 6.24 2.08 2.34 3.12 5.32 3.12 8.94 0 2.35-.44 4.49-1.34 6.42a13.9 13.9 0 0 1-3.75 4.91 17.67 17.67 0 0 1-5.83 3.15 24.14 24.14 0 0 1-7.65 1.14c-2.37 0-4.61-.17-6.72-.51-2.1-.35-4.17-.9-6.2-1.69l.9-7.92a24.61 24.61 0 0 0 11.44 2.86c2.96 0 5.37-.63 7.23-1.9a6.12 6.12 0 0 0 2.78-5.36c0-1.03-.14-1.95-.44-2.79a6.12 6.12 0 0 0-1.6-2.34c-.76-.74-1.8-1.46-3.08-2.16a43.38 43.38 0 0 0-4.9-2.24 38.17 38.17 0 0 1-6.02-2.9c-1.63-1-2.96-2.09-3.97-3.26a11.1 11.1 0 0 1-2.2-3.78 14.56 14.56 0 0 1-.66-4.58c0-2.15.42-4.12 1.26-5.9.84-1.79 2.03-3.3 3.57-4.55a16.64 16.64 0 0 1 5.57-2.9 23.96 23.96 0 0 1 7.2-1.02c2.08 0 4.07.15 5.98.44 1.9.3 3.83.78 5.76 1.47l-.9 7.33zm44.12 42.82v-43.78l-15.15.22v-7.62h39.29v7.63l-15.08-.22v43.77h-9.06zm57.34-51.18 6.31 10.34 1.82 3.04a262.95 262.95 0 0 1 4.08 7.04c.62 1.1 1.13 1.97 1.53 2.6h.15c.34-.63.84-1.5 1.48-2.6a1811.65 1811.65 0 0 1 5.94-10.08l6.24-10.34h10.1l-19.53 30.2v20.98h-8.99v-20.9l-19.83-30.28h10.7zm74.64 43.63h20.94v7.55h-29.93v-51.18h8.99v43.63zm79.91 7.55h-30.15v-51.18h29.7v7.4h-20.79v13.86h19.24v7.19h-19.24v15.32h21.24v7.41zm117.8 0h-9.88l-4.98-12.32h-23.32l-4.98 12.32h-9.35l21.16-51.18h9.8l21.55 51.18zm-23.03-33.58c-.25-.64-.53-1.42-.85-2.35l-1-2.86c-.35-.98-.66-1.93-.93-2.86l-.7-2.35h-.16c-.2.64-.46 1.42-.78 2.35l-.96 2.86c-.32.98-.66 1.93-1 2.86l-.9 2.35-5.42 14.37h18.2l-5.5-14.37zm85.19-17.6h8.24v51.18h-11.5l-15.75-29.11-1.9-3.6c-.67-1.26-1.3-2.52-1.9-3.77l-1.66-3.56c-.52-1.12-.96-2.1-1.3-2.93h-.15a201.34 201.34 0 0 1 .26 7.33l.07 4.44c.03 1.5.04 2.77.04 3.85v27.35h-8.32v-51.18h12.55l15.23 28.82c.5.93 1.03 1.96 1.6 3.11l1.74 3.52c.6 1.2 1.15 2.37 1.67 3.52l1.38 3.04h.14c-.04-.92-.1-2.15-.14-3.66l-.15-4.8a358.27 358.27 0 0 1-.15-9.28v-24.27zm55.1 0c4.36 0 8.44.45 12.22 1.35 3.8.91 7.07 2.39 9.84 4.44a21.3 21.3 0 0 1 6.54 8c1.58 3.27 2.38 7.28 2.38 12.02 0 4.5-.8 8.35-2.42 11.55a21.7 21.7 0 0 1-6.6 7.88 28.1 28.1 0 0 1-9.85 4.51c-3.76.95-7.8 1.43-12.1 1.43h-12.7v-51.18h12.7zm-3.7 44.14h2.82c3.16 0 6.12-.32 8.87-.95a20.03 20.03 0 0 0 7.17-3.12 14.7 14.7 0 0 0 4.75-5.68c1.14-2.35 1.71-5.26 1.71-8.73 0-3.66-.57-6.68-1.7-9.05a14.08 14.08 0 0 0-4.76-5.65 19.38 19.38 0 0 0-7.17-2.93c-2.75-.56-5.7-.84-8.87-.84H736v36.95zm117.71-44.14c4.36 0 8.43.45 12.22 1.35 3.79.91 7.07 2.39 9.84 4.44a21.3 21.3 0 0 1 6.54 8c1.58 3.27 2.37 7.28 2.37 12.02 0 4.5-.8 8.35-2.41 11.55a21.7 21.7 0 0 1-6.61 7.88 28.1 28.1 0 0 1-9.84 4.51c-3.77.95-7.8 1.43-12.1 1.43h-12.7v-51.18h12.7zm-3.71 44.14h2.82c3.17 0 6.13-.32 8.88-.95a20.03 20.03 0 0 0 7.16-3.12 14.72 14.72 0 0 0 4.76-5.68c1.13-2.35 1.7-5.26 1.7-8.73 0-3.66-.57-6.68-1.7-9.05a14.09 14.09 0 0 0-4.76-5.65 19.38 19.38 0 0 0-7.16-2.93c-2.75-.56-5.71-.84-8.88-.84h-2.82v36.95zm96.18 7.04h-30.16v-51.18h29.71v7.4h-20.8v13.86h19.24v7.19h-19.23v15.32h21.24v7.41zm57.7-42.82a24.86 24.86 0 0 0-10.1-2.2c-2.77 0-4.98.6-6.64 1.8a5.5 5.5 0 0 0-2.5 4.65 5.43 5.43 0 0 0 1.82 4.4c.73.69 1.7 1.37 2.94 2.05 1.24.69 2.85 1.42 4.83 2.2 4.65 1.81 8.02 3.89 10.1 6.24 2.08 2.34 3.12 5.32 3.12 8.94 0 2.35-.45 4.49-1.34 6.42a13.88 13.88 0 0 1-3.75 4.91 17.66 17.66 0 0 1-5.83 3.15 24.14 24.14 0 0 1-7.65 1.14 41.9 41.9 0 0 1-6.72-.51 31.1 31.1 0 0 1-6.2-1.69l.89-7.92a24.61 24.61 0 0 0 11.44 2.86c2.97 0 5.38-.63 7.24-1.9a6.12 6.12 0 0 0 2.78-5.36c0-1.03-.14-1.95-.44-2.79a6.1 6.1 0 0 0-1.6-2.34c-.76-.74-1.8-1.46-3.08-2.16a43.4 43.4 0 0 0-4.9-2.24 38.17 38.17 0 0 1-6.02-2.9c-1.63-1-2.96-2.09-3.97-3.26a11.08 11.08 0 0 1-2.2-3.78 14.53 14.53 0 0 1-.66-4.58c0-2.15.42-4.12 1.26-5.9.84-1.79 2.03-3.3 3.57-4.55a16.65 16.65 0 0 1 5.57-2.9 23.96 23.96 0 0 1 7.2-1.02c2.08 0 4.07.15 5.98.44 1.91.3 3.82.78 5.76 1.47l-.9 7.33zm43.45 42.82h-8.98v-51.18h8.98v51.18zm73.9-41.2a25.6 25.6 0 0 0-6.27-2.36 30.76 30.76 0 0 0-7.32-.88c-2.92 0-5.58.44-7.98 1.32a17.4 17.4 0 0 0-6.17 3.78 16.92 16.92 0 0 0-3.97 5.9 20.15 20.15 0 0 0-1.41 7.7c0 2.84.44 5.42 1.33 7.74.89 2.32 2.17 4.3 3.83 5.94a16.83 16.83 0 0 0 6.01 3.77c2.36.88 4.99 1.32 7.91 1.32 1.14 0 2.29-.04 3.46-.14 1.16-.1 2.31-.3 3.45-.59v-13.86h-11.07v-7.11h19.76v26.69a54.13 54.13 0 0 1-16.34 2.5 33.5 33.5 0 0 1-11.36-1.84 25.4 25.4 0 0 1-8.84-5.28 23.74 23.74 0 0 1-5.76-8.32 28.16 28.16 0 0 1-2.04-10.96c0-3.92.71-7.46 2.12-10.64a23.31 23.31 0 0 1 5.94-8.14 26.87 26.87 0 0 1 9.17-5.2 36.22 36.22 0 0 1 11.81-1.83c2.53 0 4.98.15 7.35.47 2.38.32 4.73.92 7.06 1.8l-.67 8.21zm68.77-9.98h8.25v51.18h-11.51l-15.75-29.11-1.89-3.6c-.67-1.26-1.3-2.52-1.9-3.77l-1.67-3.56c-.52-1.12-.95-2.1-1.3-2.93h-.15a172.03 172.03 0 0 1 .26 7.33l.08 4.44c.02 1.5.04 2.77.04 3.85v27.35h-8.32v-51.18h12.55l15.22 28.82c.5.93 1.03 1.96 1.6 3.11l1.75 3.52c.59 1.2 1.15 2.37 1.67 3.52l1.37 3.04h.15a1432.58 1432.58 0 0 1-.3-8.47c-.05-1.68-.08-3.36-.11-5.02-.02-1.66-.04-3.08-.04-4.25v-24.27zm121.14 9.97a25.7 25.7 0 0 0-6.28-2.35c-2.4-.58-4.84-.88-7.31-.88-2.92 0-5.59.44-7.99 1.32a16.92 16.92 0 0 0-10.13 9.68 19.97 19.97 0 0 0-1.42 7.7c0 2.84.45 5.42 1.34 7.74.89 2.32 2.17 4.3 3.83 5.94a16.74 16.74 0 0 0 6.01 3.77c2.35.88 4.99 1.32 7.91 1.32 1.14 0 2.29-.04 3.46-.14 1.16-.1 2.31-.3 3.45-.59v-13.86h-11.07v-7.11h19.76v26.69a54.13 54.13 0 0 1-16.34 2.5 33.5 33.5 0 0 1-11.36-1.84 25.32 25.32 0 0 1-8.84-5.28 23.61 23.61 0 0 1-5.76-8.32 28.16 28.16 0 0 1-2.04-10.96c0-3.92.7-7.46 2.12-10.64a23.31 23.31 0 0 1 5.94-8.14 26.87 26.87 0 0 1 9.17-5.2 36.22 36.22 0 0 1 11.81-1.83c2.52 0 4.97.15 7.35.47 2.38.32 4.73.92 7.06 1.8l-.67 8.21zm34.91-9.97h13.96c3.17 0 6.03.22 8.58.66 2.55.44 4.72 1.17 6.53 2.2 1.81 1.02 3.2 2.4 4.16 4.1.97 1.72 1.45 3.87 1.45 6.46 0 3.47-1.03 6.17-3.08 8.1-2.06 1.93-4.79 3.24-8.21 3.92v.15a8.77 8.77 0 0 1 4.16 2.5 17.97 17.97 0 0 1 2.75 4.47l8.39 18.62h-9.95l-6.61-15.4a24.6 24.6 0 0 0-1.6-3.26 6.42 6.42 0 0 0-4.75-3.12 25.6 25.6 0 0 0-4.27-.3h-2.53v22.08h-8.98v-51.18zm8.98 22.07h3.34c4.36 0 7.64-.57 9.84-1.72 2.21-1.15 3.31-3.12 3.31-5.9 0-1.52-.3-2.76-.89-3.7a5.82 5.82 0 0 0-2.56-2.2 13.86 13.86 0 0 0-4.13-1.07c-1.63-.2-3.49-.3-5.57-.3h-3.34v14.89zm81.1-22.95c3.72 0 7.1.62 10.14 1.87a22.07 22.07 0 0 1 12.78 13.53 31.92 31.92 0 0 1 1.74 10.85c0 4.1-.59 7.8-1.78 11.1a23.33 23.33 0 0 1-5.09 8.4 22.48 22.48 0 0 1-7.94 5.32 27.76 27.76 0 0 1-10.44 1.87c-3.81 0-7.27-.62-10.36-1.87s-5.74-3-7.95-5.28a23.05 23.05 0 0 1-5.08-8.29 31.72 31.72 0 0 1-1.79-10.96c0-4.15.6-7.87 1.79-11.14a22.68 22.68 0 0 1 5.12-8.32 22.53 22.53 0 0 1 8.1-5.25 29.67 29.67 0 0 1 10.76-1.83zm-.59 6.97c-2.33 0-4.43.46-6.31 1.39a14.51 14.51 0 0 0-4.9 3.96 18.32 18.32 0 0 0-3.2 6.16 27 27 0 0 0-1.11 7.99c0 2.93.37 5.6 1.11 8.03a17.88 17.88 0 0 0 3.2 6.16c1.38 1.68 3.03 3 4.93 3.92a14.5 14.5 0 0 0 6.43 1.4c2.28 0 4.37-.47 6.28-1.4 1.9-.93 3.55-2.25 4.93-3.96a18.33 18.33 0 0 0 3.2-6.16 27 27 0 0 0 1.11-8c0-2.97-.37-5.67-1.11-8.1a18.33 18.33 0 0 0-3.16-6.15 13.8 13.8 0 0 0-4.94-3.89 15.03 15.03 0 0 0-6.46-1.35zm97.52 23.68c0 6.99-1.71 12.45-5.13 16.39-3.41 3.93-8.66 5.9-15.74 5.9-3.82 0-7.02-.52-9.62-1.58a15.3 15.3 0 0 1-6.28-4.5 18.06 18.06 0 0 1-3.41-7.05c-.7-2.73-1.04-5.79-1.04-9.16v-29.77h9.06v29.04c0 2.49.2 4.72.59 6.7.4 1.99 1.04 3.66 1.93 5.03a8.64 8.64 0 0 0 3.53 3.11c1.46.71 3.28 1.07 5.46 1.07 2.23 0 4.1-.36 5.61-1.07a9.02 9.02 0 0 0 3.67-3.11 13.5 13.5 0 0 0 2.01-5.02c.39-1.99.59-4.22.59-6.71v-29.04h8.77v29.77zm46.12-29.77c2.92 0 5.68.22 8.28.66 2.6.44 4.86 1.23 6.8 2.38a12.62 12.62 0 0 1 4.6 4.77c1.14 2.03 1.71 4.6 1.71 7.73 0 3.08-.58 5.64-1.75 7.67a12.95 12.95 0 0 1-4.71 4.8c-1.98 1.17-4.26 2-6.84 2.5-2.57.48-5.27.73-8.09.73h-3.49v19.94h-8.99v-51.18h12.48zm-3.49 24.2h2.82c1.98 0 3.78-.13 5.38-.37 1.61-.25 2.99-.69 4.13-1.32 1.14-.64 2-1.52 2.6-2.64a9.1 9.1 0 0 0 .89-4.25c0-1.67-.29-3.05-.86-4.15a6.52 6.52 0 0 0-2.52-2.64 11.86 11.86 0 0 0-4.09-1.39c-1.61-.27-3.48-.4-5.6-.4h-2.75v17.16z" clip-rule="evenodd" style="fill:var(--primary, #000);fill-opacity:var(--secondary, 1)"/></svg>