<svg xmlns="http://www.w3.org/2000/svg" width="24" height="24" fill="none" viewBox="0 0 24 24"><style>:root { --primary : #F3B032;--secondary : #F3B032;--tertiary : 1; }</style><title>Star filled</title><desc>Star filled icon</desc><path d="m21.984 10.723-4.228 3.69 1.267 5.494a1.5 1.5 0 0 1-2.235 1.625l-4.792-2.906-4.78 2.906a1.5 1.5 0 0 1-2.236-1.625l1.265-5.488-4.23-3.696a1.5 1.5 0 0 1 .855-2.63l5.574-.483 2.176-5.19a1.495 1.495 0 0 1 2.76 0l2.183 5.19 5.572.482a1.5 1.5 0 0 1 .854 2.631h-.005Z" style="fill:var(--primary, #000)"/></svg>