<svg xmlns="http://www.w3.org/2000/svg" width="24" height="24" fill="none" viewBox="0 0 24 24"><style>:root { --primary : #F3B032;--secondary : #F3B032;--tertiary : 1; }</style><title>Half filled star</title><desc>Half filled star icon</desc><path d="M22.425 9.12a1.5 1.5 0 0 0-1.295-1.03l-5.567-.48-2.183-5.19a1.495 1.495 0 0 0-2.76 0L8.444 7.61l-5.574.482a1.5 1.5 0 0 0-.854 2.631l4.229 3.696-1.268 5.488a1.5 1.5 0 0 0 2.235 1.625l4.781-2.906 4.792 2.906a1.5 1.5 0 0 0 2.235-1.625l-1.267-5.494 4.229-3.69a1.5 1.5 0 0 0 .443-1.602Zm-1.427.47-4.228 3.69a1.5 1.5 0 0 0-.476 1.473l1.27 5.497-4.788-2.906a1.491 1.491 0 0 0-.775-.218V3.008l2.175 5.183a1.5 1.5 0 0 0 1.252.914L21 9.587v.006l-.002-.003Z" style="fill:var(--primary, #000)"/></svg>