<svg viewBox="0 0 367.7 58.51" xmlns="http://www.w3.org/2000/svg"><path d="m341.65 28.79a1.85 1.85 0 0 0 -.67 0c-2.35.38-3.65 2.73-4.62 4.49 1.55.08 2.39-.84 3.4-1.47.8-.81 1.8-1.47 1.89-3.02z" fill="none"/><path d="m323.64 14.37h-.05a2.38 2.38 0 0 0 -1 .68c-1.47 1.38-2.31 3.48-3.23 5.49a61.92 61.92 0 0 0 -2.27 6.5c2.6-2.81 7.01-8.89 6.55-12.67z" fill="none"/><path d="m314.87 35.6v-.01z" fill="none"/><path d="m128.17 35.41c.35 0 .31-.23.27-.45a2.13 2.13 0 0 0 -2.1-1.8 2.28 2.28 0 0 0 -2.6 2.18s.05 0 .08 0z" fill="none"/><path d="m75.41 46.53h56.7v2.59h-56.7z" fill="#ffce55"/><path d="m367.38 39.15a1.25 1.25 0 0 0 -1.81-.17c-.21.18-.41.35-.62.51a6.63 6.63 0 0 1 -2.7 1.61 2.31 2.31 0 0 1 -.35-1.61c0-4.36 2.27-10.2-.59-12.38a3.12 3.12 0 0 0 -1.79-.57c-3-.13-5.46 2.92-6.88 4.73a4.84 4.84 0 0 1 .18-.68 1.26 1.26 0 0 0 -1-1.63 1.27 1.27 0 0 0 -1.45.91c-.44 1.64-.93 3.26-1.38 4.89a29.52 29.52 0 0 1 -6.82 5c-1.36.72-3.84 1.74-5.51.78-1.26-.54-1.66-2.86-1.14-4.54a5.05 5.05 0 0 0 4.07-.67 12 12 0 0 0 2.23-1.63c1.38-1.26 2.64-2.6 2.6-5.25a3 3 0 0 0 -3.32-2.6 7.82 7.82 0 0 0 -4.86 2.64 15.48 15.48 0 0 0 -2.77 4.62 11.6 11.6 0 0 0 -.77 3c0 .12-.08.24-.13.36a2.33 2.33 0 0 1 -.11.28v.12c-.09.2-.18.4-.28.59a11.82 11.82 0 0 1 -.66 1.15 5.54 5.54 0 0 1 -.33.51l-.21.29-.14.18a11.71 11.71 0 0 1 -.8.92c-.22.23-.45.44-.68.65a10 10 0 0 1 -1.18.59 2.56 2.56 0 0 1 -1.52.05c-.8-.63-.66-2.58-.63-3.78.22-3.36.72-9.33-3.39-9.08-3.77 1-5.69 3.86-7.64 6.63h-.06c.18-1 .49-1.93.69-2.94a35.59 35.59 0 0 0 7.34-8.43 38 38 0 0 0 2.73-5.25c.84-2.05 2-6.92-1.72-7.25a3.67 3.67 0 0 0 -2.77 1c-2 1.64-3.27 4.45-4.36 6.92a71.25 71.25 0 0 0 -3.69 11.29l-.68 2.69c-.09.36-.17.72-.26 1.08a27 27 0 0 1 -6.62 4.86 10.54 10.54 0 0 1 -4.83 1.46 4.68 4.68 0 0 1 -.8-.25 3 3 0 0 1 -1-2.48 11.89 11.89 0 0 1 3.35-7.76 4.12 4.12 0 0 1 2.31-1.51 4.51 4.51 0 0 1 0 .52 1.44 1.44 0 0 0 1.44 1.55 1.44 1.44 0 0 0 1.43-1.36 3.4 3.4 0 0 0 -1.25-3.27 3.44 3.44 0 0 0 -1.85-.37 6.32 6.32 0 0 0 -3.82 2.05 14.74 14.74 0 0 0 -4.51 9.44 17.37 17.37 0 0 1 -2.89 2.22c-1.26.83-4.16 2.64-5.44.81-1.64-2.34 1.51-9.78 3.25-13.85l6.92-.39a1.23 1.23 0 1 0 -.13-2.46l-5.74.31c.05-.11.09-.23.13-.33l2.83-7.34a1.27 1.27 0 0 0 -2.37-.9l-2.8 7.37c-.16.41-.35.88-.57 1.4l-4.68.26a1.24 1.24 0 0 0 .07 2.47h.06l3.48-.2a61.48 61.48 0 0 0 -2.74 7.57 37.15 37.15 0 0 1 -4.69 4.23c-1 .75-2 1.77-3.44 2-.8-.21-1.09-1.56-1.13-2.65a15.85 15.85 0 0 1 .38-3.27c.27-1.26 1.08-3.37 1.43-4.48a1.4 1.4 0 0 0 -1.08-1.81 1.42 1.42 0 0 0 -1.61.95c-.25.76-.93 2.42-1.16 3.27-1.66 2.3-3.27 5-5.81 6.52a6.14 6.14 0 0 1 -3.56 1 4.33 4.33 0 0 1 -2.86-1.72 13.54 13.54 0 0 1 -1.8-2.77 28.65 28.65 0 0 0 9.23-6.88c.55-.77 1.22-1.41 1.72-2.24a1.26 1.26 0 0 0 -.34-1.65 1.29 1.29 0 0 0 -1.77.23 35.62 35.62 0 0 1 -4.68 4.83 26.49 26.49 0 0 1 -2.79 2 14.9 14.9 0 0 1 -2.17 1.22c-.12 0-1.89.56-1.83.21a35.29 35.29 0 0 1 .8-3.78 80.38 80.38 0 0 1 2.42-7.71c.29-.71 1.91-4.35 2.51-5.75a1.28 1.28 0 0 0 -.67-1.68 1.28 1.28 0 0 0 -1.68.66c-.6 1.41-2.21 5-2.54 5.74a98.25 98.25 0 0 0 -3.24 10.45.87.87 0 0 0 -.45-.13.93.93 0 0 0 -.52 0 1.1 1.1 0 0 0 -.44.23 1 1 0 0 0 -.33.37 1.35 1.35 0 0 0 -.14 1l.14.31a1.22 1.22 0 0 0 .46.47l.64.4c-.54 2.72-1.27 5.25-1.61 8.2a1.28 1.28 0 0 0 1.39 1.42 1.27 1.27 0 0 0 1.14-1.09c.3-2.19.82-4.17 1.22-6.2a5.84 5.84 0 0 0 .89.21c1.84 2.85 3.48 6.67 8.34 6.29 3-.25 4.87-2.1 6.59-3.61.31-.33.6-.68.89-1 .11 2.77 1.27 5.31 4 5.31a6.88 6.88 0 0 0 4-1.68c.76-.58 2.14-1.79 3.48-3a5.62 5.62 0 0 0 .89 3.19 4.1 4.1 0 0 0 1.93 1.48 7.22 7.22 0 0 0 6.14-.76c.27-.15 2.91-1.67 2.81-1.9a4.86 4.86 0 0 0 2.4 2.57 5.91 5.91 0 0 0 2.73.38 14.16 14.16 0 0 0 5.08-1.8 34.22 34.22 0 0 0 4.29-2.67 19.89 19.89 0 0 0 -.6 4.24c.29.67 1.22.73 2.14.78a1.27 1.27 0 0 0 1.21-.72c1.71-3.56 3.38-7.1 5.92-9.8 1-.88 1.77-1.93 3.36-2.18.63.51.54 2.45.46 3.3a24.69 24.69 0 0 0 .06 7.31 3.52 3.52 0 0 0 3.47 2.41 5.86 5.86 0 0 0 2.62-.64 12.86 12.86 0 0 0 3.47-3.35 5.24 5.24 0 0 0 4.28 3.21 8.73 8.73 0 0 0 4.75-1 27.21 27.21 0 0 0 5.59-3.39c-.34 1.52-.59 3.61 1.53 3.38.76-.09 1-1 1.34-1.6s.63-1.3.88-2a31.83 31.83 0 0 1 4.2-7.6c1-.92 2-2.53 3.81-2.34.59.7.49 1.83.4 2.92-.31 3.43-1.41 7.48-.41 9.89a6 6 0 0 0 .56.91 3 3 0 0 0 1.71.86 5.15 5.15 0 0 0 3.63-1.28 5.51 5.51 0 0 0 2.18-2.18 1.28 1.28 0 0 0 -.23-1.39zm-26.38-10.36a1.85 1.85 0 0 1 .67 0c-.09 1.55-1.09 2.18-1.89 3-1 .63-1.85 1.55-3.4 1.47.95-1.74 2.25-4.09 4.62-4.47zm-21.62-8.25c.92-2 1.76-4.11 3.23-5.49a2.38 2.38 0 0 1 1-.68h.05c.46 3.78-3.95 9.86-6.55 12.67a61.92 61.92 0 0 1 2.25-6.5z" fill="#161b1f"/><path d="m278.17 26.76a2 2 0 1 0 -2-2 2 2 0 0 0 2 2z"/><g fill="#161b1f"><path d="m123.1 42.05a8.12 8.12 0 0 0 5.72.33 6.1 6.1 0 0 0 2.66-1.47l-1.59-2.19a22 22 0 0 1 -2.21.88 3.35 3.35 0 0 1 -3.21-.62 1.8 1.8 0 0 1 -.73-1.39h8.35c0-.77 0-1.5 0-2.23a5.29 5.29 0 0 0 -5-5.07 6.5 6.5 0 0 0 -5.91 2.16 6.34 6.34 0 0 0 -1.23 5.61 5.26 5.26 0 0 0 3.15 3.99zm3.24-8.89a2.13 2.13 0 0 1 2.1 1.8c0 .22.08.45-.27.45h-4.35s0 0-.08 0a2.28 2.28 0 0 1 2.6-2.25z"/><path d="m103 34.17c0 1.6 0 3.21.08 4.8a3.74 3.74 0 0 0 1.46 3 4.25 4.25 0 0 0 2.44.76 6.69 6.69 0 0 0 3.48-.72l-.89-2.81-.68.2c-1.32.38-2-.17-2-1.52v-3.88c0-.16 0-.32 0-.52h2.91v-3h-2.94v-3.4l-3.84.43v3h-2v3h2z"/><path d="m92.67 34.12c0 1.65 0 3.3.11 5a3.44 3.44 0 0 0 2.13 3.24 6.27 6.27 0 0 0 5-.23.34.34 0 0 0 .15-.3c-.25-.88-.54-1.74-.82-2.62l-.53.17c-1.45.45-2.21-.1-2.21-1.6v-4.26h1.94c1 0 1 0 1-1v-2h-3v-3.39l-3.82.43v3h-2v3h2z"/><path d="m112.22 39.21a3.45 3.45 0 0 0 1.21 2.79 5.88 5.88 0 0 0 5.35.26.34.34 0 0 0 .14-.28c-.19-.85-.4-1.71-.6-2.58l-.29.07c-1.46.36-2 0-2-1.55v-12.34h-3.86v2.87c.01 3.55.01 7.17.05 10.76z"/><path d="m76.43 42.18a.25.25 0 0 0 .25.23h3.32a.24.24 0 0 0 .25-.24v-5.37c0-3.57 0-7.14 0-11.85h-3.84c0 5.73-.02 12.55.02 17.23z"/><path d="m84.8 42.41h3.78v-11.87h-3.78z"/><path d="m86.72 29.4a2.08 2.08 0 0 0 2.28-2.07 2.13 2.13 0 0 0 -2.2-2.12 2.1 2.1 0 0 0 -2.3 2.11 2.06 2.06 0 0 0 2.22 2.08z"/></g><path d="m50.83 47.28c5-6.19 6.45-13.33 6.58-23.11v-.1a.15.15 0 0 1 0-.11 1.9 1.9 0 0 0 -.11-.39.22.22 0 0 1 -.05-.13 0 0 0 0 0 0 0 1.58 1.58 0 0 0 -.34-.19h-.08s0 0 0 0l-54.38 7c1.55 7 8.44 28.66 32.79 25.75a30.48 30.48 0 0 0 8-2.07 30.21 30.21 0 0 0 7.59-6.65zm-15.93 5a32 32 0 0 1 -4.34.31c-16.16 0-20.91-13.72-22-18.22a2.74 2.74 0 0 1 .39-2.2 3 3 0 0 1 2.05-1.17l41-5.93a2.89 2.89 0 0 1 2.38.69 2.77 2.77 0 0 1 .94 2.14c-.14 5.1-2.07 21.92-20.42 24.43z" fill="#ffce55"/><g fill="#161b1f"><path d="m8.22 18.24a2.2 2.2 0 1 0 -2.4-2 2.2 2.2 0 0 0 2.4 2z"/><path d="m25.32 18.92a2.19 2.19 0 1 0 -2.4-2 2.19 2.19 0 0 0 2.4 2z"/><path d="m47.48 14.87a2.19 2.19 0 1 0 -2.4-2 2.19 2.19 0 0 0 2.4 2z"/><path d="m36.66 4.37a2.19 2.19 0 1 0 -2.4-2 2.18 2.18 0 0 0 2.4 2z"/><circle cx="18.21" cy="4.29" r="1.71" transform="matrix(.87546453 -.48328238 .48328238 .87546453 .19 9.34)"/><path d="m54.39 25.76a2.89 2.89 0 0 0 -2.39-.69l-41 5.93a3 3 0 0 0 -2 1.27 2.74 2.74 0 0 0 -.39 2.2c1.12 4.5 5.87 18.22 22 18.22a32 32 0 0 0 4.34-.31c18.3-2.56 20.23-19.38 20.38-24.48a2.77 2.77 0 0 0 -.94-2.14zm-19.8 24.33c-17.32 2.36-22.46-10.55-23.87-16.21a.5.5 0 0 1 .08-.4.67.67 0 0 1 .48-.29l41.05-5.89a.67.67 0 0 1 .57.15.5.5 0 0 1 .17.39c-.18 5.95-2.33 20.04-18.48 22.25z"/><path d="m59.08 18.86-55.97 7.14a3.51 3.51 0 0 0 -2.43 1.48 3.72 3.72 0 0 0 -.59 3c1.51 6.83 8.05 28.04 30.67 28.03a39.35 39.35 0 0 0 4.74-.29c24.74-3 27.39-28 27.61-35.55a3.76 3.76 0 0 0 -1.22-2.91 3.56 3.56 0 0 0 -2.81-.9zm-15.79 35.05a30.48 30.48 0 0 1 -8 2.07c-24.4 2.93-31.29-18.73-32.95-25.8 0-.07 0-.15 0-.22a1.48 1.48 0 0 1 .22-1.18 1.27 1.27 0 0 1 .87-.54l56-7.14a1.28 1.28 0 0 1 1 .33 1.49 1.49 0 0 1 .48 1.17c-.29 7.9-2.6 25.05-17.62 31.31z"/></g><path d="m40.52 37.55a1.07 1.07 0 0 0 -.41-.6c-.32-.16-1.46.22-1.8.27l-6.49 1-9.17 1.46c1.43 3 4.56 6.58 11.25 5.54a9.91 9.91 0 0 0 6.67-3.73 12 12 0 0 0 -.05-3.94z" fill="#ffce55"/><path d="m31.57 47.71c-6.76 0-9.88-4.51-11.23-7.63l-1.15.19c-.84.13 1.86 4 2.06 4.25a12.52 12.52 0 0 0 4.21 3c4.22 1.84 8.5.83 12.57-.87a3.35 3.35 0 0 0 1.34-1 13.43 13.43 0 0 1 -5.12 1.85 17.16 17.16 0 0 1 -2.68.21z" fill="#ffce55"/><path d="m42.81 31.9-21.54 3.52a2.13 2.13 0 0 0 -1.43.93 1.94 1.94 0 0 0 -.25 1.59 15.19 15.19 0 0 0 .75 2.14c1.35 3.12 4.47 7.63 11.23 7.63a17.16 17.16 0 0 0 2.68-.22 13.43 13.43 0 0 0 5.12-1.85c5.24-3.28 5.82-9.53 5.84-11.74a2 2 0 0 0 -.7-1.53 2.08 2.08 0 0 0 -1.7-.47zm-2.24 9.63a9.91 9.91 0 0 1 -6.67 3.73c-6.69 1-9.82-2.55-11.25-5.54a14.49 14.49 0 0 1 -.81-2.1l21.16-3.52a13 13 0 0 1 -2.43 7.43z" fill="#161b1f"/><path d="m146.8 33.05c-1.16 0-1.43-.58-1.43-.93 0-.69.69-.92 1.7-.92h.16a10.28 10.28 0 0 1 4.64 1.17l3-4.26a13.41 13.41 0 0 0 -7.82-2.32c-4.49 0-8.82 1.66-8.82 6.27s4.49 6.15 8.2 6.27c1.4.11 2 .42 2 1s-.65.93-1.93.93a12.32 12.32 0 0 1 -6.77-2.13l-2.33 5.19c2.17 1.59 5.93 2.52 9.25 2.52 4.61 0 8.91-1.78 8.91-6.51.03-5.04-4.77-6.16-8.76-6.28z" fill="#161b1f"/><path d="m171.42 36.42c0 2.52-1.59 3.56-3.29 3.56-1.32 0-2.67-.81-2.67-3.17v-10.57h-7.12v10.61c0 6.81 3.44 8.94 7.47 9h.19a7.76 7.76 0 0 0 5.89-2.56l.31 2.09h6.31v-19.14h-7.05z" fill="#161b1f"/><path d="m195.3 25.78h-.15a7.72 7.72 0 0 0 -5.88 2.56l-.27-2.1h-6.31v19.12h7v-10.06c0-2.52 1.59-3.68 3.29-3.68 1.32 0 2.67.81 2.67 3.18v10.56h7.13v-10.6c0-6.82-3.45-8.95-7.48-8.98z" fill="#161b1f"/><path d="m219.38 25.78h-.16a7.74 7.74 0 0 0 -5.88 2.56l-.34-2.1h-6.31v19.12h7.05v-10.06c0-2.52 1.59-3.68 3.29-3.68 1.32 0 2.67.81 2.67 3.18v10.56h7.12v-10.6c.03-6.82-3.41-8.95-7.44-8.98z" fill="#161b1f"/><path d="m241.68 30.77-2.32 6.66-2.09-6.62-1.63-4.57h-7.55l7.59 18.27-3.87 8.94h7.43l11.85-27.21h-7.63z" fill="#161b1f"/></svg>