<svg width="32" height="33" viewBox="0 0 32 33" fill="none" xmlns="http://www.w3.org/2000/svg">
<path d="M16.0001 5.84884C19.3571 5.84884 19.7543 5.86182 21.0802 5.9222C22.3058 5.97809 22.9715 6.18269 23.4146 6.35485C23.9613 6.55615 24.4559 6.87761 24.8618 7.29551C25.2797 7.70143 25.6012 8.19598 25.8025 8.74268C25.9746 9.18582 26.1792 9.85152 26.2351 11.0771C26.2955 12.403 26.3085 12.8003 26.3085 16.1572C26.3085 19.5141 26.2955 19.9114 26.2351 21.2373C26.1792 22.4629 25.9746 23.1286 25.8025 23.5717C25.5931 24.1137 25.2727 24.606 24.8618 25.0169C24.4509 25.4278 23.9587 25.7482 23.4166 25.9575C22.9735 26.1297 22.3078 26.3343 21.0822 26.3902C19.7568 26.4506 19.3591 26.4635 16.0021 26.4635C12.6452 26.4635 12.2475 26.4506 10.9221 26.3902C9.69646 26.3343 9.03076 26.1297 8.58763 25.9575C8.04092 25.7562 7.54637 25.4348 7.14045 25.0169C6.72255 24.611 6.40109 24.1164 6.19979 23.5697C6.02763 23.1266 5.82303 22.4609 5.76714 21.2353C5.70676 19.9094 5.69378 19.5121 5.69378 16.1552C5.69378 12.7983 5.70676 12.401 5.76714 11.0751C5.82303 9.84952 6.02763 9.18382 6.19979 8.74069C6.40109 8.19398 6.72255 7.69943 7.14045 7.29352C7.54637 6.87561 8.04092 6.55416 8.58763 6.35286C9.03076 6.18069 9.69646 5.97609 10.9221 5.9202C12.248 5.85982 12.6452 5.84684 16.0021 5.84684L16.0001 5.84884ZM16.0021 3.58177C12.5878 3.58177 12.1596 3.59624 10.8188 3.65762C9.47789 3.719 8.56467 3.93309 7.76623 4.24348C6.92717 4.55933 6.16699 5.0542 5.53859 5.69364C4.89914 6.32205 4.40428 7.08223 4.08842 7.92129C3.77803 8.71973 3.56544 9.63494 3.50456 10.9728C3.44368 12.3107 3.42871 12.7409 3.42871 16.1552C3.42871 19.5695 3.44318 19.9977 3.50456 21.3386C3.56594 22.6794 3.77803 23.5907 4.08842 24.3891C4.40441 25.2278 4.89926 25.9876 5.53859 26.6157C6.16678 27.2556 6.92701 27.7506 7.76623 28.0664C8.56467 28.3773 9.47988 28.5899 10.8178 28.6508C12.1557 28.7117 12.5868 28.7266 16.0011 28.7266C19.4155 28.7266 19.8436 28.7122 21.1845 28.6508C22.5254 28.5894 23.4356 28.3773 24.234 28.0664C25.0694 27.7436 25.8281 27.2498 26.4614 26.6165C27.0947 25.9832 27.5886 25.2245 27.9114 24.3891C28.2222 23.5907 28.4348 22.6755 28.4957 21.3376C28.5566 19.9997 28.5716 19.5685 28.5716 16.1542C28.5716 12.7399 28.5571 12.3117 28.4957 10.9708C28.4343 9.62995 28.2222 8.71973 27.9114 7.92129C27.5957 7.08251 27.101 6.32265 26.4617 5.69464C25.8334 5.05484 25.0732 4.55963 24.234 4.24348C23.4356 3.93309 22.5204 3.7205 21.1825 3.65962C19.8446 3.59874 19.4145 3.58377 16.0001 3.58377L16.0021 3.58177Z" fill="#9C702A"/>
<path d="M16.0003 9.69994C14.7236 9.69994 13.4755 10.0785 12.4139 10.7879C11.3523 11.4972 10.5249 12.5054 10.0363 13.685C9.54772 14.8645 9.41988 16.1625 9.66896 17.4147C9.91805 18.6669 10.5329 19.8172 11.4357 20.72C12.3385 21.6228 13.4887 22.2376 14.7409 22.4867C15.9931 22.7357 17.2911 22.6079 18.4707 22.1193C19.6502 21.6307 20.6584 20.8033 21.3678 19.7417C22.0771 18.6802 22.4557 17.4321 22.4557 16.1553C22.4558 15.3076 22.2888 14.4681 21.9644 13.6849C21.64 12.9016 21.1646 12.19 20.5651 11.5905C19.9656 10.9911 19.254 10.5156 18.4708 10.1912C17.6875 9.8668 16.8481 9.69987 16.0003 9.69994ZM16.0003 20.3471C15.1712 20.3471 14.3608 20.1013 13.6715 19.6407C12.9821 19.1801 12.4449 18.5254 12.1276 17.7595C11.8103 16.9935 11.7273 16.1507 11.889 15.3375C12.0508 14.5244 12.45 13.7775 13.0363 13.1913C13.6225 12.605 14.3694 12.2058 15.1825 12.0441C15.9957 11.8823 16.8385 11.9653 17.6044 12.2826C18.3704 12.5999 19.0251 13.1371 19.4857 13.8265C19.9463 14.5158 20.1921 15.3263 20.1921 16.1553C20.1921 17.2671 19.7505 18.3333 18.9644 19.1194C18.1782 19.9055 17.112 20.3471 16.0003 20.3471Z" fill="#9C702A"/>
<path d="M22.7117 10.9531C23.5448 10.9531 24.2202 10.2777 24.2202 9.44454C24.2202 8.61139 23.5448 7.93599 22.7117 7.93599C21.8785 7.93599 21.2031 8.61139 21.2031 9.44454C21.2031 10.2777 21.8785 10.9531 22.7117 10.9531Z" fill="#9C702A"/>
</svg>
