<svg width="32" height="33" viewBox="0 0 32 33" fill="none" xmlns="http://www.w3.org/2000/svg">
<path fill-rule="evenodd" clip-rule="evenodd" d="M26.6281 7.39473C27.7993 7.70142 28.7198 8.60181 29.0332 9.74755C29.5998 11.8221 29.6021 16.1532 29.6021 16.1532C29.6021 16.1532 29.6021 20.4842 29.0332 22.5588C28.7198 23.7045 27.7993 24.6049 26.6281 24.9116C24.5075 25.468 16 25.468 16 25.468C16 25.468 7.49255 25.468 5.37185 24.9116C4.20066 24.6049 3.28027 23.7045 2.96675 22.5588C2.39795 20.4842 2.39795 16.1532 2.39795 16.1532C2.39795 16.1532 2.39795 11.8221 2.96675 9.74755C3.28027 8.60181 4.20066 7.70142 5.37185 7.39473C7.49255 6.83829 16 6.83829 16 6.83829C16 6.83829 24.5075 6.83829 26.6281 7.39473ZM20.3445 16.1536L13.277 20.145V12.1621L20.3445 16.1536Z" fill="#9C702A"/>
</svg>
