<svg width="32" height="33" viewBox="0 0 32 33" fill="none" xmlns="http://www.w3.org/2000/svg">
<g clip-path="url(#clip0_5636_10049)">
<path d="M16 4.1532C9.37284 4.1532 4 9.52604 4 16.1532C4 21.2367 7.16247 25.5833 11.6267 27.3315C11.522 26.3823 11.4272 24.9216 11.6681 23.8855C11.8864 22.9492 13.0756 17.9211 13.0756 17.9211C13.0756 17.9211 12.717 17.2021 12.717 16.1394C12.717 14.4712 13.6839 13.2248 14.8879 13.2248C15.9121 13.2248 16.4059 13.9932 16.4059 14.9147C16.4059 15.9438 15.7501 17.4836 15.4123 18.9097C15.1299 20.1038 16.0109 21.0786 17.1891 21.0786C19.3225 21.0786 20.961 18.8297 20.961 15.5833C20.961 12.7102 18.8968 10.7013 15.9486 10.7013C12.5343 10.7013 10.5304 13.2623 10.5304 15.9092C10.5304 16.9404 10.9274 18.0465 11.4232 18.648C11.521 18.7665 11.5358 18.8712 11.5062 18.9917C11.4153 19.371 11.2128 20.1858 11.1733 20.3527C11.121 20.572 10.9995 20.6194 10.7723 20.5137C9.27309 19.8164 8.33679 17.6248 8.33679 15.8648C8.33679 12.0791 11.0874 8.60357 16.2657 8.60357C20.4286 8.60357 23.6632 11.5695 23.6632 15.5339C23.6632 19.4984 21.0558 22.9976 17.436 22.9976C16.2202 22.9976 15.0765 22.3655 14.6854 21.6199C14.6854 21.6199 14.084 23.9112 13.9378 24.4722C13.6672 25.5142 12.9353 26.8209 12.4464 27.6179C13.5694 27.9655 14.7625 28.1532 15.999 28.1532C22.6262 28.1532 27.999 22.7804 27.999 16.1532C27.999 9.52604 22.6272 4.1532 16 4.1532Z" fill="#9C702A"/>
</g>
<defs>
<clipPath id="clip0_5636_10049">
<rect width="24" height="24" fill="white" transform="translate(4 4.1532)"/>
</clipPath>
</defs>
</svg>
