<svg width="32" height="32" viewBox="0 0 32 32" fill="none" xmlns="http://www.w3.org/2000/svg">
<path d="M24.461 8.56047C24.2855 8.46978 24.1147 8.37035 23.9491 8.26257C23.4678 7.94433 23.0264 7.56935 22.6346 7.14571C21.6542 6.02397 21.2881 4.88599 21.1532 4.08924H21.1586C21.046 3.4279 21.0925 3 21.0996 3H16.6343V20.2664C16.6343 20.4982 16.6343 20.7273 16.6245 20.9537C16.6245 20.9819 16.6218 21.0079 16.6202 21.0382C16.6202 21.0507 16.6202 21.0637 16.6175 21.0767C16.6175 21.0799 16.6175 21.0832 16.6175 21.0864C16.5704 21.7059 16.3718 22.3044 16.0392 22.8292C15.7066 23.3539 15.2501 23.7889 14.7099 24.0958C14.1468 24.4161 13.5101 24.5841 12.8623 24.5833C10.7819 24.5833 9.09576 22.8868 9.09576 20.7918C9.09576 18.6967 10.7819 17.0003 12.8623 17.0003C13.2561 16.9999 13.6475 17.0619 14.022 17.1839L14.0274 12.6374C12.8907 12.4906 11.7359 12.5809 10.6358 12.9027C9.53579 13.2245 8.51438 13.7708 7.63604 14.5071C6.8664 15.1758 6.21937 15.9737 5.72405 16.8649C5.53556 17.1899 4.82439 18.4958 4.73827 20.6152C4.6841 21.8182 5.04537 23.0645 5.21762 23.5796V23.5904C5.32594 23.8937 5.74571 24.9288 6.42981 25.8014C6.98143 26.5013 7.63316 27.1162 8.364 27.6262V27.6154L8.37483 27.6262C10.5365 29.0951 12.9333 28.9987 12.9333 28.9987C13.3482 28.9819 14.738 28.9987 16.3164 28.2507C18.0669 27.4214 19.0635 26.186 19.0635 26.186C19.7002 25.4478 20.2065 24.6065 20.5606 23.6982C20.9647 22.6361 21.0996 21.3621 21.0996 20.853V11.6928C21.1537 11.7253 21.8752 12.2025 21.8752 12.2025C21.8752 12.2025 22.9146 12.8687 24.5363 13.3025C25.6997 13.6113 27.2672 13.6763 27.2672 13.6763V9.24348C26.718 9.30306 25.6028 9.12974 24.461 8.56047Z" fill="#9C702A"/>
</svg>
