<svg width="32" height="32" viewBox="0 0 32 32" fill="none" xmlns="http://www.w3.org/2000/svg">
<path d="M23.1694 7.28516H8.88378C9.04529 5.70868 10.0611 5 11.6309 5H20.4297C22.0886 5 23.0226 5.70868 23.1694 7.28516Z" fill="#9C702A"/>
<path d="M26.9336 11.4844V19.4336C26.9336 21.3379 25.9277 22.2949 24.0332 22.2949H23.7305V16.875C23.7305 15.5859 22.7637 14.6191 21.4746 14.6191H10.459C9.17969 14.6191 8.20313 15.5859 8.20313 16.875V22.2949H7.90039C6.00586 22.2949 5 21.3379 5 19.4336V11.4844C5 9.58008 6.10352 8.61328 7.90039 8.61328H24.0332C25.9277 8.61328 26.9336 9.58008 26.9336 11.4844ZM20.7226 11.8457C20.7226 12.5391 21.2891 13.0957 21.9824 13.0957C22.6562 13.0957 23.2324 12.5293 23.2324 11.8457C23.2324 11.1621 22.6562 10.5859 21.9824 10.5859C21.2891 10.5859 20.7226 11.1621 20.7226 11.8457Z" fill="#9C702A"/>
<path d="M9.54102 24.7168C9.54102 25.5078 10.0684 26.0351 10.8496 26.0351H21.084C21.875 26.0351 22.4023 25.5078 22.4023 24.7168V16.875C22.4023 16.3184 22.0312 15.957 21.4746 15.957H10.459C9.91211 15.957 9.54102 16.3184 9.54102 16.875V24.7168ZM12.8711 19.873C12.5 19.873 12.2363 19.5898 12.2363 19.2285C12.2363 18.8867 12.5 18.623 12.8711 18.623H19.0918C19.4433 18.623 19.707 18.8867 19.707 19.2285C19.707 19.5898 19.4433 19.873 19.0918 19.873H12.8711ZM12.8711 23.3691C12.5 23.3691 12.2363 23.0957 12.2363 22.7539C12.2363 22.3926 12.5 22.1191 12.8711 22.1191H19.0918C19.4433 22.1191 19.707 22.3926 19.707 22.7539C19.707 23.0957 19.4433 23.3691 19.0918 23.3691H12.8711Z" fill="#9C702A"/>
</svg>
